<svg xmlns="http://www.w3.org/2000/svg" width="1000" height="500" viewBox="0 0 1000 500"><rect width="100%" height="100%" rx="18" fill="#f8fafc"/><text x="74" y="31" font-family="sans-serif" font-size="20" font-weight="700" fill="#0f172a">Evaluation evolution</text><line x1="74" x2="970" y1="380.0" y2="380.0" stroke="#cbd5e1"/><text x="64" y="384.0" text-anchor="end" font-family="sans-serif" font-size="12" fill="#475569">0%</text><line x1="74" x2="970" y1="316.4" y2="316.4" stroke="#cbd5e1"/><text x="64" y="320.4" text-anchor="end" font-family="sans-serif" font-size="12" fill="#475569">20%</text><line x1="74" x2="970" y1="252.8" y2="252.8" stroke="#cbd5e1"/><text x="64" y="256.8" text-anchor="end" font-family="sans-serif" font-size="12" fill="#475569">40%</text><line x1="74" x2="970" y1="189.2" y2="189.2" stroke="#cbd5e1"/><text x="64" y="193.2" text-anchor="end" font-family="sans-serif" font-size="12" fill="#475569">60%</text><line x1="74" x2="970" y1="125.6" y2="125.6" stroke="#cbd5e1"/><text x="64" y="129.6" text-anchor="end" font-family="sans-serif" font-size="12" fill="#475569">80%</text><line x1="74" x2="970" y1="62.0" y2="62.0" stroke="#cbd5e1"/><text x="64" y="66.0" text-anchor="end" font-family="sans-serif" font-size="12" fill="#475569">100%</text><line x1="74" x2="970" y1="212.9" y2="212.9" stroke="#be123c" stroke-width="2" stroke-dasharray="8 6"/><text x="966" y="205.9" text-anchor="end" font-family="sans-serif" font-size="12" fill="#be123c">closed target 52.5%</text><rect x="97.0" y="374.0" width="54.0" height="6.0" rx="5" fill="#2563eb"><title>Base model — Point score: 1.90%</title></rect><text x="124.0" y="368.0" text-anchor="middle" font-family="sans-serif" font-size="11" fill="#334155">1.9</text><rect x="159.0" y="380.0" width="54.0" height="0.0" rx="5" fill="#7c3aed"><title>Base model — Exact optimal: 0.00%</title></rect><text x="186.0" y="374.0" text-anchor="middle" font-family="sans-serif" font-size="11" fill="#334155">0.0</text><rect x="221.0" y="316.4" width="54.0" height="63.6" rx="5" fill="#059669"><title>Base model — Legal move: 20.00%</title></rect><text x="248.0" y="310.4" text-anchor="middle" font-family="sans-serif" font-size="11" fill="#334155">20.0</text><text x="186.0" y="404" text-anchor="middle" font-family="sans-serif" font-size="12" fill="#334155">Base model</text><rect x="321.0" y="380.0" width="54.0" height="0.0" rx="5" fill="#2563eb"><title>Clean QLoRA — Point score: 0.00%</title></rect><text x="348.0" y="374.0" text-anchor="middle" font-family="sans-serif" font-size="11" fill="#334155">0.0</text><rect x="383.0" y="380.0" width="54.0" height="0.0" rx="5" fill="#7c3aed"><title>Clean QLoRA — Exact optimal: 0.00%</title></rect><text x="410.0" y="374.0" text-anchor="middle" font-family="sans-serif" font-size="11" fill="#334155">0.0</text><rect x="445.0" y="380.0" width="54.0" height="0.0" rx="5" fill="#059669"><title>Clean QLoRA — Legal move: 0.00%</title></rect><text x="472.0" y="374.0" text-anchor="middle" font-family="sans-serif" font-size="11" fill="#334155">0.0</text><text x="410.0" y="404" text-anchor="middle" font-family="sans-serif" font-size="12" fill="#334155">Clean QLoRA</text><rect x="545.0" y="299.5" width="54.0" height="80.5" rx="5" fill="#2563eb"><title>Broad specialized — Point score: 25.32%</title></rect><text x="572.0" y="293.5" text-anchor="middle" font-family="sans-serif" font-size="11" fill="#334155">25.3</text><rect x="607.0" y="316.4" width="54.0" height="63.6" rx="5" fill="#7c3aed"><title>Broad specialized — Exact optimal: 20.00%</title></rect><text x="634.0" y="310.4" text-anchor="middle" font-family="sans-serif" font-size="11" fill="#334155">20.0</text><rect x="669.0" y="316.4" width="54.0" height="63.6" rx="5" fill="#059669"><title>Broad specialized — Legal move: 20.00%</title></rect><text x="696.0" y="310.4" text-anchor="middle" font-family="sans-serif" font-size="11" fill="#334155">20.0</text><text x="634.0" y="404" text-anchor="middle" font-family="sans-serif" font-size="12" fill="#334155">Broad specialized</text><rect x="769.0" y="62.0" width="54.0" height="318.0" rx="5" fill="#2563eb"><title>Focused specialized — Point score: 100.00%</title></rect><text x="796.0" y="56.0" text-anchor="middle" font-family="sans-serif" font-size="11" fill="#334155">100.0</text><rect x="831.0" y="62.0" width="54.0" height="318.0" rx="5" fill="#7c3aed"><title>Focused specialized — Exact optimal: 100.00%</title></rect><text x="858.0" y="56.0" text-anchor="middle" font-family="sans-serif" font-size="11" fill="#334155">100.0</text><rect x="893.0" y="62.0" width="54.0" height="318.0" rx="5" fill="#059669"><title>Focused specialized — Legal move: 100.00%</title></rect><text x="920.0" y="56.0" text-anchor="middle" font-family="sans-serif" font-size="11" fill="#334155">100.0</text><text x="858.0" y="404" text-anchor="middle" font-family="sans-serif" font-size="12" fill="#334155">Focused specialized</text><rect x="74" y="470" width="13" height="13" fill="#2563eb"/><text x="93" y="481" font-family="sans-serif" font-size="12" fill="#334155">Point score</text><rect x="254" y="470" width="13" height="13" fill="#7c3aed"/><text x="273" y="481" font-family="sans-serif" font-size="12" fill="#334155">Exact optimal</text><rect x="434" y="470" width="13" height="13" fill="#059669"/><text x="453" y="481" font-family="sans-serif" font-size="12" fill="#334155">Legal move</text></svg>